<svg xmlns="http://www.w3.org/2000/svg" viewBox="0 0 220 300">
  <defs><filter id="s" x="-40%" y="-20%" width="180%" height="170%"><feGaussianBlur in="SourceAlpha" stdDeviation="3"/><feOffset dy="5"/><feComponentTransfer><feFuncA type="linear" slope=".22"/></feComponentTransfer><feMerge><feMergeNode/><feMergeNode in="SourceGraphic"/></feMerge></filter></defs>
  <g filter="url(#s)">
    <ellipse cx="111" cy="274" rx="49" ry="12" fill="#2f4d35" opacity=".22"/>
    <path d="M79 194 68 266h29l13-66z" fill="#5b4638"/><path d="M116 199 124 266h29l-8-73z" fill="#4c3a31"/>
    <path d="M72 111q38-29 77 0l11 86q-49 29-97 0z" fill="#3c7f87"/>
    <path d="M76 119q34 15 80 0l-5 22q-39 15-72 0z" fill="#65a4a5" opacity=".75"/>
    <path d="M71 126 47 190l21 9 27-62z" fill="#d5a074"/><path d="M152 128 177 187l-20 11-27-61z" fill="#d5a074"/>
    <circle cx="111" cy="82" r="40" fill="#d7a47b"/>
    <path d="M73 80q6-44 42-45 40 4 39 45-19-18-40-18-22 0-41 18z" fill="#4b3429"/>
    <path d="M77 63q18-27 48-22 23 5 29 29-26-12-52-3-14 5-25 12z" fill="#624132"/>
    <circle cx="97" cy="85" r="4" fill="#3a2923"/><circle cx="126" cy="85" r="4" fill="#3a2923"/>
    <path d="M99 102q12 8 24 0" fill="none" stroke="#925f50" stroke-width="4" stroke-linecap="round"/>
    <path d="M76 182q-13 22-4 49l-16 3q-13-35 7-66z" fill="#9f6d42"/><path d="M142 183q17 21 12 49l16 2q10-36-12-65z" fill="#9f6d42"/>
    <path d="M83 260h26v14H78q-7-7 5-14z" fill="#3b302a"/><path d="M126 260h28q11 7 5 14h-33z" fill="#3b302a"/>
  </g>
</svg>
